<?xml version="1.0" encoding="UTF-8" standalone="no"?>
<svg width="75px" height="76px" viewBox="0 0 75 76" version="1.1" xmlns="http://www.w3.org/2000/svg" xmlns:xlink="http://www.w3.org/1999/xlink">
    <!-- Generator: Sketch 3.6.1 (26313) - http://www.bohemiancoding.com/sketch -->
    <title>Equal_Housing_Lender</title>
    <desc>Created with Sketch.</desc>
    <defs></defs>
    <g id="Page-1" stroke="none" stroke-width="1" fill="none" fill-rule="evenodd">
        <g id="Equal_Housing_Lender">
            <g transform="translate(4.000000, 4.000000)">
                <path d="M0.235101796,19.100998 L33.9308862,0.0199600798 L66.8756287,19.2898204 L66.8756287,25.9964072 L61.6195389,25.9964072 L61.6195389,49.7057884 L5.39731138,49.7057884 L5.39731138,25.9964072 L0.235101796,25.9964072 L0.235101796,19.100998" id="Fill-2" fill="#1A1918"></path>
                <path d="M33.928479,7.20518962 L12.2469581,19.8626747 L12.2469581,43.6662675 L55.1414012,43.6662675 L55.1414012,19.8626747 L33.928479,7.20518962" id="Fill-3" fill="#FFFFFF"></path>
                <path d="M22.3972575,28.9269461 L44.8298204,28.9269461 L44.8298204,23.0706587 L22.3972575,23.0706587 L22.3972575,28.9269461 Z" id="Fill-4" fill="#1A1918"></path>
                <path d="M22.3972575,37.6487026 L44.8298204,37.6487026 L44.8298204,31.7924152 L22.3972575,31.7924152 L22.3972575,37.6487026 Z" id="Fill-5" fill="#1A1918"></path>
                <path d="M34.6133234,67.8882236 L34.6133234,60.4259481 L38.555491,60.4259481 C41.3710958,60.4259481 43.3421796,61.2762475 43.3421796,64.299002 C43.3421796,67.2271457 41.5588563,67.8882236 38.4616108,67.8882236 L34.6133234,67.8882236" id="Fill-6" fill="#1A1918"></path>
                <path d="M36.6766826,62.0287425 L36.6766826,66.2794411 L38.3661257,66.2794411 C39.9616886,66.2794411 41.0882515,65.996008 41.0882515,64.2958084 C41.0882515,62.7844311 39.8678084,62.0287425 38.5538862,62.0287425 L36.6766826,62.0287425" id="Fill-7" fill="#FFFFFF"></path>
                <path d="M55.1859341,67.8882236 L55.1859341,60.4259481 L60.6297844,60.4259481 C62.6947485,60.4259481 63.5396707,61.0874251 63.5396707,62.7876248 C63.5396707,64.0155689 62.882509,64.5824351 61.4743054,64.7712575 L63.6335509,67.8882236 L61.3808263,67.8882236 L59.221982,64.7712575 L57.2508982,64.7712575 L57.2508982,67.8882236 L55.1859341,67.8882236" id="Fill-8" fill="#1A1918"></path>
                <path d="M60.3389162,62.0399202 L57.2412695,62.0399202 L57.2412695,63.1736527 L60.2450359,63.1736527 C61.2777186,63.1736527 61.5589581,63.1736527 61.5589581,62.6067864 C61.5589581,62.1345309 61.1834371,62.0399202 60.3389162,62.0399202" id="Fill-9" fill="#FFFFFF"></path>
                <path d="M23.2967425,60.4259481 L23.2967425,67.8882236 L25.2678263,67.8882236 L25.2678263,63.354491 L29.209994,67.8882236 L31.5565988,67.8882236 L31.5565988,60.4259481 L29.585515,60.4259481 L29.585515,65.0542914 L25.6433473,60.4259481 L23.2967425,60.4259481" id="Fill-10" fill="#1A1918"></path>
                <path d="M3.94537725,60.4259481 L3.94537725,67.8882236 L11.3607126,67.8882236 L11.3607126,66.2826347 L6.01074251,66.188024 L6.01074251,60.4259481 L3.94537725,60.4259481" id="Fill-11" fill="#1A1918"></path>
                <path d="M13.4838503,67.8882236 L20.711024,67.8882236 L20.711024,66.2826347 L15.6422934,66.2826347 L15.6422934,64.6766467 L19.8661018,64.6766467 L19.8661018,63.1656687 L15.6422934,63.1656687 L15.6422934,62.0319361 L20.711024,62.0319361 L20.711024,60.4259481 L13.4838503,60.4259481 L13.4838503,67.8882236" id="Fill-12" fill="#1A1918"></path>
                <path d="M45.6526766,60.4259481 L45.6526766,67.8882236 L52.7859701,67.794012 L52.7859701,66.2826347 L47.7176407,66.2826347 L47.7176407,64.6766467 L52.0349281,64.6766467 L52.0349281,63.1656687 L47.7176407,63.1656687 L47.7176407,62.0319361 L52.7859701,62.0319361 L52.7859701,60.4259481 L45.6526766,60.4259481" id="Fill-13" fill="#1A1918"></path>
                <path d="M18.6560898,58.5888224 L20.5332934,51.8822355 L22.1292575,51.8822355 L24.0064611,58.5888224 L22.544497,58.5888224 L22.1292575,57.0774451 L20.4394132,57.0774451 L20.0241737,58.5888224 L18.6560898,58.5888224" id="Fill-14" fill="#1A1918"></path>
                <path d="M21.2919581,53.3173653 L20.7286766,55.962475 L21.9491198,55.962475 L21.2919581,53.3173653" id="Fill-15" fill="#FFFFFF"></path>
                <path d="M8.1908503,56.1349301 L8.1908503,54.3397206 C8.1908503,52.6399202 8.75413174,51.69501 10.4435749,51.69501 C12.3207784,51.69501 12.6962994,52.8287425 12.6962994,54.4343313 L12.6962994,55.851497 C12.6962994,56.7013972 12.6024192,57.0794411 12.3207784,57.6463074 L13.4469401,58.0239521 L13.3530599,58.4962076 C9.50477246,58.4962076 8.1908503,58.401996 8.1908503,56.1349301" id="Fill-16" fill="#1A1918"></path>
                <path d="M9.59303593,54.4323353 L9.59303593,56.0383234 C9.59303593,57.2662675 9.78079641,57.6439122 10.4379581,57.6439122 C11.189,57.6439122 11.282479,57.3608782 11.282479,56.1325349 L11.282479,54.3381238 C11.282479,53.0155689 11.189,52.8267465 10.5318383,52.8267465 C9.68691617,52.8267465 9.59303593,53.2043912 9.59303593,54.4323353" id="Fill-17" fill="#FFFFFF"></path>
                <path d="M46.4875689,56.7936128 C46.4875689,57.8327345 47.1447305,58.6830339 48.6464132,58.6830339 C49.8664551,58.6830339 50.993018,57.8327345 50.993018,56.7936128 C50.993018,55.188024 47.9892515,54.4323353 47.9892515,53.3932136 C47.9892515,53.0151697 48.3647725,52.8263473 48.7402934,52.8263473 C49.3035749,52.8263473 49.5848144,53.2043912 49.8664551,53.7708583 L50.8052575,53.3932136 C50.7113772,52.4487026 50.0542156,51.693014 48.6464132,51.693014 C47.5202515,51.693014 46.5814491,52.259481 46.5814491,53.3932136 C46.5814491,55.2822355 49.5848144,55.754491 49.5848144,56.9824351 C49.5848144,57.4550898 49.3035749,57.6439122 48.7402934,57.6439122 C48.177012,57.6439122 47.8018922,57.2658683 47.6137305,56.6047904 L46.4875689,56.7936128" id="Fill-18" fill="#1A1918"></path>
                <path d="M36.3115928,56.4159681 L36.3115928,54.2431138 C36.3115928,52.4487026 37.1561138,51.693014 38.5639162,51.693014 C40.3476407,51.693014 40.8166407,52.3540918 40.8166407,54.0542914 L40.8166407,56.1325349 C40.8166407,57.9273453 40.3476407,58.6830339 38.5639162,58.6830339 C36.780994,58.6830339 36.3115928,58.0219561 36.3115928,56.4159681" id="Fill-19" fill="#1A1918"></path>
                <path d="M37.7157844,54.1493014 L37.7157844,56.2275449 C37.7157844,57.1720559 37.8096647,57.6443114 38.5603054,57.6443114 C39.1235868,57.6443114 39.4052275,57.2666667 39.4052275,56.1329341 L39.4052275,54.1493014 C39.4052275,53.3936128 39.3113473,52.7325349 38.5603054,52.7325349 C37.8096647,52.7325349 37.7157844,53.2994012 37.7157844,54.1493014" id="Fill-20" fill="#FFFFFF"></path>
                <path d="M59.0354251,56.1325349 C59.0354251,58.1161677 59.5987066,58.6830339 61.4759102,58.6830339 C62.9290479,58.6830339 63.3531138,57.9972056 63.3531138,57.2658683 L63.3531138,55.0938124 L61.3820299,55.0938124 L61.3820299,56.1325349 L62.0387904,56.1325349 L62.0387904,56.8882236 C62.0387904,57.4550898 61.8514311,57.738523 61.3820299,57.738523 C60.4432275,57.738523 60.3493473,57.0770459 60.3493473,56.1325349 L60.3493473,54.6211577 C60.3493473,53.4874251 60.4432275,52.7321357 61.3820299,52.7321357 C62.0387904,52.7321357 62.4143114,53.2043912 62.5081916,53.8654691 L63.4465928,53.4874251 C63.3531138,52.3540918 62.6020719,51.693014 61.2881497,51.693014 C59.4109461,51.693014 59.0354251,52.7321357 59.0354251,54.1489022 L59.0354251,56.1325349" id="Fill-21" fill="#1A1918"></path>
                <path d="M41.4035928,51.8810379 L41.4035928,55.7536926 C41.4035928,58.0211577 41.7899461,58.7457086 43.7610299,58.7457086 C45.2627126,58.7457086 45.8151617,57.9265469 45.8151617,55.9429142 L45.8151617,51.8810379 L44.5008383,51.8810379 L44.5008383,55.7536926 C44.5008383,57.2650699 44.4069581,57.6431138 43.6563174,57.6431138 C42.9052754,57.6431138 42.8113952,57.0762475 42.8113952,55.659481 L42.8113952,51.8810379 L41.4035928,51.8810379" id="Fill-22" fill="#1A1918"></path>
                <path d="M53.943024,51.8822355 L53.943024,58.5888224 L55.0691856,58.5888224 L55.0691856,54.0550898 L56.6651497,58.5888224 L58.3545928,58.5888224 L58.3545928,51.8822355 L57.2280299,51.8822355 L57.2280299,56.0387226 L55.7263473,51.8822355 L53.943024,51.8822355" id="Fill-23" fill="#1A1918"></path>
                <path d="M14.0459281,51.8810379 L14.0459281,55.9429142 C14.0459281,57.8323353 14.2336886,58.6822355 16.1108922,58.6822355 C18.2697365,58.6822355 18.3632156,57.6431138 18.3632156,55.7540918 L18.3632156,51.8810379 L17.0492934,51.8810379 L17.0492934,55.8483034 C17.0492934,57.1708583 16.8619341,57.5489022 16.2047725,57.5489022 C15.4537305,57.5489022 15.3598503,57.1708583 15.3598503,55.659481 L15.3598503,51.8810379 L14.0459281,51.8810379" id="Fill-24" fill="#1A1918"></path>
                <path d="M31.116485,51.8822355 L31.116485,58.5888224 L32.4304072,58.5888224 L32.4304072,55.5664671 L34.0259701,55.5664671 L34.0259701,58.5888224 L35.3398922,58.5888224 L35.3398922,51.8822355 L34.0259701,51.8822355 L34.0259701,54.4327345 L32.4304072,54.4327345 L32.4304072,51.8822355 L31.116485,51.8822355" id="Fill-25" fill="#1A1918"></path>
                <path d="M3.85029341,51.8822355 L3.85029341,58.5888224 L7.22917964,58.5888224 L7.22917964,57.5500998 L5.16461677,57.5500998 L5.16461677,55.6606786 L7.04182036,55.6606786 L7.04182036,54.7161677 L5.16461677,54.7161677 L5.16461677,52.9213573 L7.22917964,52.9213573 L7.22917964,51.8822355 L3.85029341,51.8822355" id="Fill-26" fill="#1A1918"></path>
                <path d="M24.6018383,51.8822355 L24.6018383,58.5888224 L27.6990838,58.5888224 L27.6990838,57.5500998 L25.728,57.5500998 L25.728,51.8822355 L24.6018383,51.8822355" id="Fill-27" fill="#1A1918"></path>
                <path d="M51.6822754,58.5888224 L52.9023174,58.5888224 L52.9023174,51.8822355 L51.6822754,51.8822355 L51.6822754,58.5888224 Z" id="Fill-28" fill="#1A1918"></path>
            </g>
        </g>
    </g>
</svg>