<?xml version="1.0" encoding="UTF-8" standalone="no"?>
<svg width="226px" height="29px" viewBox="0 0 226 29" version="1.1" xmlns="http://www.w3.org/2000/svg" xmlns:xlink="http://www.w3.org/1999/xlink">
    <!-- Generator: Sketch 3.6.1 (26313) - http://www.bohemiancoding.com/sketch -->
    <title>logo</title>
    <desc>Created with Sketch.</desc>
    <defs></defs>
    <g id="Page-1" stroke="none" stroke-width="1" fill="none" fill-rule="evenodd">
        <g id="logo" fill="#FFFFFF">
            <g id="Group-2">
                <path d="M0.144,22.728 C1.296,23.856 2.832,24.288 4.44,24.288 C7.728,24.288 10.08,22.536 10.08,18.744 L10.08,7.992 L6.672,7.992 L6.672,18.696 C6.672,20.256 5.688,21.264 4.176,21.264 C3.072,21.264 2.256,20.712 1.632,20.112 L0.144,22.728 Z M14.9622859,17.616 C14.9622859,21.552 17.3142859,24.288 22.1862859,24.288 C27.0582859,24.288 29.4102859,21.576 29.4102859,17.592 L29.4102859,7.992 L25.9302859,7.992 L25.9302859,17.496 C25.9302859,19.728 24.6582859,21.264 22.1862859,21.264 C19.7142859,21.264 18.4182859,19.728 18.4182859,17.496 L18.4182859,7.992 L14.9622859,7.992 L14.9622859,17.616 Z M33.1885717,21.744 C34.6765717,23.256 36.8845717,24.288 39.9565717,24.288 C44.2765717,24.288 46.3645717,22.08 46.3645717,19.152 C46.3645717,15.528 43.0045717,14.736 40.3645717,14.112 C38.6365717,13.704 37.1725717,13.368 37.1725717,12.336 C37.1725717,11.376 37.9885717,10.728 39.4525717,10.728 C41.0845717,10.728 42.8125717,11.28 44.1085717,12.48 L46.0045717,9.984 C44.4205717,8.52 42.3085717,7.752 39.7645717,7.752 C35.9965717,7.752 33.6925717,9.96 33.6925717,12.624 C33.6925717,16.272 37.0525717,16.992 39.6685717,17.592 C41.4205717,18.024 42.9085717,18.36 42.9085717,19.536 C42.9085717,20.448 41.9965717,21.312 40.1245717,21.312 C37.9165717,21.312 36.1645717,20.328 35.0365717,19.152 L33.1885717,21.744 Z M53.9108576,24 L57.3428576,24 L57.3428576,10.992 L61.9988576,10.992 L61.9988576,7.992 L49.2308576,7.992 L49.2308576,10.992 L53.9108576,10.992 L53.9108576,24 Z M65.8971434,24 L69.3051434,24 L69.3051434,7.992 L65.8971434,7.992 L65.8971434,24 Z M85.2274293,24 L88.5154293,24 L88.5154293,7.992 L85.1074293,7.992 L85.1074293,18.048 L77.6914293,7.992 L74.1874293,7.992 L74.1874293,24 L77.5954293,24 L77.5954293,13.56 L85.2274293,24 Z M109.008001,24.288 C112.536001,24.288 114.552001,22.344 115.704001,20.352 L112.776001,18.936 C112.104001,20.256 110.664001,21.264 109.008001,21.264 C106.104001,21.264 103.992001,19.032 103.992001,16.008 C103.992001,12.984 106.104001,10.752 109.008001,10.752 C110.664001,10.752 112.104001,11.784 112.776001,13.08 L115.704001,11.64 C114.576001,9.648 112.536001,7.728 109.008001,7.728 C104.208001,7.728 100.488001,11.088 100.488001,16.008 C100.488001,20.928 104.208001,24.288 109.008001,24.288 L109.008001,24.288 Z M128.506287,24 L132.418287,24 L128.818287,17.904 C130.546287,17.496 132.322287,15.984 132.322287,13.152 C132.322287,10.176 130.282287,7.992 126.946287,7.992 L119.458287,7.992 L119.458287,24 L122.866287,24 L122.866287,18.312 L125.362287,18.312 L128.506287,24 Z M128.842287,13.152 C128.842287,14.496 127.810287,15.312 126.442287,15.312 L122.866287,15.312 L122.866287,10.992 L126.442287,10.992 C127.810287,10.992 128.842287,11.808 128.842287,13.152 L128.842287,13.152 Z M135.836573,16.008 C135.836573,20.832 139.364573,24.288 144.188573,24.288 C149.036573,24.288 152.564573,20.832 152.564573,16.008 C152.564573,11.184 149.036573,7.728 144.188573,7.728 C139.364573,7.728 135.836573,11.184 135.836573,16.008 L135.836573,16.008 Z M149.060573,16.008 C149.060573,18.984 147.140573,21.264 144.188573,21.264 C141.236573,21.264 139.340573,18.984 139.340573,16.008 C139.340573,13.008 141.236573,10.752 144.188573,10.752 C147.140573,10.752 149.060573,13.008 149.060573,16.008 L149.060573,16.008 Z M168.438859,24 L172.062859,24 L176.622859,7.992 L172.782859,7.992 L169.998859,19.56 L166.974859,7.992 L164.310859,7.992 L161.262859,19.56 L158.454859,7.992 L154.638859,7.992 L159.222859,24 L162.846859,24 L165.630859,13.008 L168.438859,24 Z M179.945144,24 L190.121144,24 L190.121144,21 L183.353144,21 L183.353144,7.992 L179.945144,7.992 L179.945144,24 Z M194.21143,24 L205.53943,24 L205.53943,21 L197.61943,21 L197.61943,17.376 L205.37143,17.376 L205.37143,14.376 L197.61943,14.376 L197.61943,10.992 L205.53943,10.992 L205.53943,7.992 L194.21143,7.992 L194.21143,24 Z M214.381716,24 L217.789716,24 L217.789716,17.448 L223.909716,7.992 L220.021716,7.992 L216.085716,14.424 L212.101716,7.992 L208.213716,7.992 L214.381716,17.448 L214.381716,24 Z" id="JUSTIN-CROWLEY-Copy"></path>
            </g>
        </g>
    </g>
</svg>